<svg width="20" height="16" viewBox="0 0 20 16" fill="none" xmlns="http://www.w3.org/2000/svg">
<path d="M9.90924 12L11.2037 10.6818L9.50751 8.95455L8.21306 10.2727V10.9091H9.28433V12H9.90924ZM14.8192 3.81818C14.7002 3.69697 14.5774 3.70076 14.451 3.82955L10.5453 7.80682C10.4188 7.93561 10.4151 8.06061 10.5341 8.18182C10.6532 8.30303 10.7759 8.29924 10.9024 8.17045L14.8081 4.19318C14.9345 4.06439 14.9383 3.93939 14.8192 3.81818ZM15.7119 10.5682V12.7273C15.7119 13.6288 15.3976 14.3996 14.769 15.0398C14.1404 15.6799 13.3834 16 12.4981 16H3.21381C2.32852 16 1.57157 15.6799 0.94294 15.0398C0.314313 14.3996 0 13.6288 0 12.7273V3.27273C0 2.37121 0.314313 1.60038 0.94294 0.960227C1.57157 0.320076 2.32852 0 3.21381 0H12.4981C12.9668 0 13.402 0.094697 13.8038 0.284091C13.9153 0.337121 13.9823 0.424242 14.0046 0.545455C14.0269 0.674242 13.9935 0.784091 13.9042 0.875L13.3574 1.43182C13.2532 1.53788 13.1342 1.56818 13.0003 1.52273C12.8292 1.47727 12.6618 1.45455 12.4981 1.45455H3.21381C2.72281 1.45455 2.30248 1.63258 1.95283 1.98864C1.60318 2.3447 1.42836 2.77273 1.42836 3.27273V12.7273C1.42836 13.2273 1.60318 13.6553 1.95283 14.0114C2.30248 14.3674 2.72281 14.5455 3.21381 14.5455H12.4981C12.9891 14.5455 13.4095 14.3674 13.7591 14.0114C14.1088 13.6553 14.2836 13.2273 14.2836 12.7273V11.2955C14.2836 11.197 14.3171 11.1136 14.384 11.0455L15.0982 10.3182C15.2098 10.2045 15.34 10.178 15.4888 10.2386C15.6376 10.2992 15.7119 10.4091 15.7119 10.5682ZM14.6407 2.18182L17.8545 5.45455L10.3556 13.0909H7.14179V9.81818L14.6407 2.18182ZM19.5953 3.68182L18.5687 4.72727L15.3549 1.45455L16.3815 0.409091C16.5898 0.19697 16.8427 0.0909091 17.1403 0.0909091C17.4379 0.0909091 17.6908 0.19697 17.8991 0.409091L19.5953 2.13636C19.8036 2.34848 19.9078 2.60606 19.9078 2.90909C19.9078 3.21212 19.8036 3.4697 19.5953 3.68182Z" fill="#637381"/>
</svg>
