<svg width="597" height="676" viewBox="0 0 597 676" fill="none" xmlns="http://www.w3.org/2000/svg">
<ellipse cx="227.953" cy="556.018" rx="181.998" ry="23.9824" fill="#524A4A" fill-opacity="0.07"/>
<path d="M597 187.412C597 291.691 440.792 360.785 460.228 296.163C483.205 219.769 472.993 147.06 362.117 125.622C263.878 106.627 304.804 0 405.52 0C506.236 0 597 83.1329 597 187.412Z" fill="#524A4A" fill-opacity="0.06"/>
<g filter="url(#filter0_d_37_274)">
<path d="M181.919 471.119C189.827 474.777 193.214 483.667 189.959 491.652C186.694 499.658 177.953 503.021 171.07 498.919C164.007 494.71 161.524 484.859 165.572 477.107C168.486 471.527 174.968 469.071 181.919 471.119Z" fill="#2E4F7A" fill-opacity="0.78"/>
<path d="M137.538 470.615C145.74 473.044 149.753 480.599 147.787 489.477C145.974 497.667 138.895 502.088 130.852 500.053C124.385 498.417 119.677 490.074 120.955 482.515C122.347 474.281 129.511 469.018 137.538 470.615Z" fill="#2E4F7A" fill-opacity="0.78"/>
<path d="M215.203 471.119C221.649 468.923 226.927 470.63 230.889 476.242C234.387 481.198 234.407 488.625 231.391 494.007C228.346 499.441 222.042 501.881 215.91 499.997C210.469 498.326 206.608 492.657 206.438 486.329C206.245 479.133 208.738 473.903 215.203 471.119Z" fill="#2E4F7A" fill-opacity="0.78"/>
<path d="M124.25 388.711C117.181 377.735 121.983 364.527 133.262 363.254C139.158 362.588 145.008 366.403 147.205 372.345C149.499 378.551 147.932 386.212 143.544 390.24C139.106 394.315 131.876 394.798 127.046 391.287C126.107 390.605 125.289 389.716 124.25 388.711Z" fill="#2E4F7A" fill-opacity="0.78"/>
<path d="M179.708 363.362C190.722 366.217 192.744 377.819 189.741 385.143C186.967 391.906 180.256 395.102 173.448 393.082C167.043 391.181 163.134 384.552 163.694 376.537C164.187 369.472 169.139 364.149 176.084 363.291C177.198 363.153 178.338 363.269 179.708 363.362Z" fill="#2E4F7A" fill-opacity="0.78"/>
<path d="M231.228 387.655C226.106 394.246 217.754 395.524 211.85 390.84C206.31 386.444 204.744 377.633 208.24 370.519C210.775 365.36 217.437 362.045 222.464 363.439C229.174 365.299 233.237 370.492 233.469 377.314C233.592 380.923 233.275 384.36 231.228 387.655Z" fill="#2E4F7A" fill-opacity="0.78"/>
<path d="M206.721 274.324C205.94 263.762 210.041 257.65 218.698 256.032C223.279 255.176 229.011 258.073 231.555 262.591C234.741 268.25 234.852 274.042 231.583 279.624C228.527 284.844 223.903 287.051 218.443 286.204C212.398 285.267 208.457 281.277 206.721 274.324Z" fill="#2E4F7A" fill-opacity="0.78"/>
<path d="M174.63 285.935C166.781 283.558 162.282 275.71 164.012 267.792C165.915 259.079 172.677 254.536 180.853 256.478C187.385 258.029 192.2 266.129 190.908 273.392C189.278 282.548 182.972 287.528 174.63 285.935Z" fill="#2E4F7A" fill-opacity="0.78"/>
<path d="M136.39 286.214C127.944 286.728 121.66 280.92 120.902 272.231C120.204 264.23 125.63 257.162 133.419 255.925C139.574 254.948 145.987 259.862 147.773 266.925C149.626 274.251 146.492 282.084 140.546 284.838C139.307 285.412 137.966 285.715 136.39 286.214Z" fill="#2E4F7A" fill-opacity="0.78"/>
<path d="M432.699 298.72C416.758 317.632 397.63 328.126 374.327 328.163C343.069 328.213 320.2 311.562 305.849 281.762C281.335 230.857 309.099 166.816 360.6 157.029C401.256 149.303 439.618 175.884 449.66 220.246C456.241 249.321 450.562 275.656 432.699 298.72ZM331.85 182.157C312.716 200.67 303.542 223.968 306.932 252.077C311.46 289.631 338.965 317.359 374.34 318.461C384.957 318.792 394.845 315.398 404.304 310.144C438.031 291.41 452.197 248.123 436.663 210.37C416.998 162.576 365.143 153.127 331.85 182.157Z" fill="#2E4F7A"/>
<path d="M43.9661 481.305C37.7823 474.555 35.2555 466.509 35.2591 457.222C35.2923 373.393 35.2929 289.564 35.2285 205.736C35.2255 201.758 36.3845 198.786 38.9281 196.051C52.3736 181.593 65.7494 167.053 79.0794 152.462C81.8218 149.46 84.8 148.011 88.7414 148.017C155.555 148.109 222.368 148.117 289.182 148.032C295.21 148.024 300.697 148.961 304.954 154.769C309.706 150.999 314.099 147.07 318.86 143.718C338.607 129.813 360.245 124.14 383.326 126.281C421.537 129.825 449.514 151.189 467.6 188.668C473.942 201.811 476.908 216.139 478.138 230.968C480.414 258.412 474.479 283.444 460.63 306.192C459.622 307.849 459.631 309.071 460.934 310.482C464.181 314.001 467.377 317.58 470.543 321.19C471.81 322.635 473 323.121 474.712 321.962C477.466 320.096 479.906 321.04 482.044 323.444C503.647 347.737 525.283 371.994 546.833 396.345C552.272 402.492 552.114 410.614 546.623 416.968C541.281 423.149 535.845 429.232 530.401 435.303C524.527 441.854 516.927 441.955 510.821 435.313C501.988 425.704 493.333 415.891 484.581 406.19C472.055 392.304 459.519 378.431 446.965 364.576C444.245 361.574 441.96 358.535 444.56 354.042C445.196 352.943 444.546 352.143 443.888 351.402C440.624 347.722 437.313 344.091 434.113 340.343C432.83 338.84 431.797 338.996 430.297 340.001C416.418 349.298 401.387 354.864 385.288 356.669C381.136 357.135 376.914 357.019 372.732 356.89C369.745 356.798 368.57 357.785 368.619 361.403C368.803 375.287 368.717 389.177 368.69 403.064C368.668 414.707 361.505 423.8 351.113 425.204C348.961 425.494 348.024 426.331 348.298 428.736C348.368 429.358 348.306 429.997 348.305 430.629C348.295 437.654 348.295 437.654 354.703 438.267C361.675 438.934 368.577 447.116 368.635 455.354C368.77 474.669 368.775 493.986 368.644 513.301C368.59 521.383 361.523 529.583 353.758 531.155C351.081 531.696 348.385 531.899 345.655 531.898C265.252 531.879 184.849 531.722 104.447 532.066C91.7379 532.12 82.3212 523.211 82.3438 507.739C82.3513 502.563 82.2406 497.385 82.3393 492.211C82.3895 489.576 81.4677 488.659 79.1322 488.704C73.0189 488.82 66.9019 488.795 60.7876 488.715C54.449 488.631 48.7871 486.487 43.9661 481.305ZM103.843 324.54C103.832 319.037 103.831 319.037 99.0017 317.908C98.2269 317.727 97.4459 317.57 96.6812 317.345C89.0364 315.097 82.8911 307.408 82.7997 299.82C82.5914 282.529 82.3796 265.237 82.289 247.945C82.2116 233.182 90.6773 223.843 103.961 223.84C157.643 223.827 211.325 223.824 265.007 223.812C271.301 223.811 271.192 223.768 272.452 217.008C275.032 203.158 279.914 190.344 286.638 178.36C289.814 172.697 293.807 167.732 297.585 162.541C294.687 158.236 290.718 159.038 287.112 159.032C246.68 158.964 206.249 158.977 165.818 158.981C142.488 158.983 119.157 159.066 95.8277 158.959C92.4353 158.943 91.2118 160.129 91.3619 163.971C91.6033 170.146 91.4666 176.341 91.4043 182.527C91.3752 185.418 91.7471 188.338 91.0868 191.199C89.2495 199.16 81.6819 205.272 73.298 205.391C65.7111 205.499 58.1221 205.398 50.5344 205.452C46.1689 205.483 45.1694 206.635 45.169 211.526C45.1606 294.352 45.1534 377.178 45.1693 460.004C45.1712 469.948 51.8777 477.504 60.7761 477.636C66.7775 477.725 72.7828 477.552 78.7821 477.705C81.4077 477.771 82.3855 476.769 82.3883 473.79C82.394 467.866 82.0659 461.931 82.7482 456.012C83.7526 447.3 89.6599 439.997 97.0161 438.331C99.237 437.828 102.36 439.355 103.502 436.757C104.449 434.601 103.671 431.555 103.871 428.924C104.079 426.172 103.228 424.996 100.656 425.111C91.0447 425.542 83.4949 415.562 82.9056 405.847C81.8127 387.833 82.0558 369.761 82.7536 351.731C83.1779 340.768 89.0471 334.002 98.791 331.939C103.861 330.866 103.861 330.866 103.843 324.54ZM262.779 448.645C210.463 448.647 158.146 448.647 105.829 448.65C94.873 448.651 92.1011 451.708 92.1002 463.776C92.0991 478.294 92.3726 492.821 91.9874 507.327C91.7873 514.859 95.7103 521.244 104.459 521.224C185.311 521.038 266.164 521.138 347.017 521.155C355.04 521.157 359.359 516.372 359.375 507.357C359.401 492.208 359.404 477.059 359.374 461.91C359.355 452.417 355.928 448.657 347.369 448.654C319.399 448.644 291.429 448.647 262.779 448.645ZM133.658 342.551C123.13 342.555 112.602 342.507 102.074 342.583C96.0923 342.626 92.1953 346.769 92.1473 353.437C92.0327 369.337 91.9452 385.243 92.1725 401.14C92.2967 409.835 95.963 414.296 103.376 414.288C184.77 414.198 266.163 414.262 347.557 414.259C355.499 414.259 359.367 409.839 359.379 400.939C359.395 387.687 359.261 374.434 359.463 361.186C359.518 357.548 358.488 356.021 355.31 355.407C345.668 353.545 336.497 349.947 327.807 344.975C324.673 343.182 321.553 342.479 318.068 342.483C256.824 342.554 195.581 342.544 133.658 342.551ZM277.727 307.442C281.163 307.272 284.648 307.9 288.026 306.952C288.026 306.429 288.103 306.139 288.013 305.948C287.539 304.947 287.055 303.949 286.516 302.991C275.674 283.713 270.103 262.762 270.346 239.945C270.401 234.781 270.34 234.763 265.64 234.763C211.757 234.765 157.875 234.769 103.992 234.784C96.1354 234.786 92.1148 239.273 92.1044 248.03C92.0879 261.912 92.4208 275.806 92.0082 289.672C91.5971 303.488 94.4701 307.568 107.931 307.511C164.302 307.273 220.676 307.429 277.727 307.442ZM291.711 285.094C294.132 290.531 296.897 295.74 300.236 300.54C322.997 333.258 352.464 348.187 389.66 341.838C432.728 334.487 462.931 292.933 465.616 250.86C466.811 232.131 464.377 214.348 457.215 197.567C438.636 154.036 397.824 133.325 357.282 141.299C299.142 152.734 265.45 224.647 291.711 285.094ZM77.1276 170.162C70.2218 178.15 63.316 186.138 56.4653 194.062C57.2721 194.121 58.3885 194.273 59.5051 194.275C64.9305 194.283 70.3638 194.443 75.7783 194.163C79.275 193.982 82.3269 191.031 82.5707 187.379C83.0626 180.012 83.0624 172.608 82.5872 164.605C80.607 166.608 79.0346 168.199 77.1276 170.162ZM442.336 333.674C445.753 337.297 448.773 341.394 452.732 344.836C457.172 340.486 461.365 336.187 465.193 331.006C461.06 326.269 457.242 321.552 451.706 316.723C448.518 320.737 445.453 324.61 442.374 328.47C441.168 329.981 440.951 331.558 442.336 333.674Z" fill="#2E4F7A"/>
<path d="M535.314 229.441C537.658 233.601 537.794 237.838 535.645 240.963C533.654 243.859 530.977 245.202 527.697 244.508C524.417 243.813 522.144 241.641 521.536 237.932C520.892 234 521.825 230.459 524.969 228.156C527.828 226.062 530.837 226.048 533.796 228.02C534.292 228.351 534.709 228.835 535.314 229.441Z" fill="#2E4F7A"/>
<path d="M561.565 193.223C557.377 195.497 553.434 197.704 549.43 199.765C544.869 202.113 541.79 205.88 539.996 211.099C537.975 216.979 535.315 218.023 529.499 215.428C524.232 213.078 523.282 210.455 525.329 204.512C527.589 197.949 531.634 193.199 537.088 189.9C540.967 187.554 545 185.523 548.862 183.146C554.511 179.669 558.818 174.946 560.241 167.523C560.673 165.273 560.373 163.23 559.803 161.215C557.301 152.375 550.99 148.796 543.517 147.238C537.662 146.018 532.254 149.55 528.77 156.285C526.497 160.678 524.461 161.137 518.952 158.497C514.625 156.424 513.299 153.849 514.691 149.35C516.871 142.307 521.122 137.28 527.285 134.322C541.277 127.603 560.607 132.819 570.317 145.925C580.671 159.901 577.81 180.774 564.07 191.457C563.328 192.034 562.546 192.548 561.565 193.223Z" fill="#2E4F7A"/>
<path d="M474.745 69.4378C470.494 71.1317 468.011 74.3732 466.357 78.6173C464.443 83.5315 462.063 84.2277 456.29 81.7485C452.395 80.0755 451.43 77.5534 452.826 72.6951C455.743 62.549 464.98 54.7267 475.065 53.88C482.563 53.2505 489.7 54.6919 496.397 58.5838C514.336 69.0087 515.566 93.3479 498.741 105.89C495.643 108.199 492.313 110.119 489.117 112.268C486.196 114.231 484.249 116.995 483.214 120.696C481.8 125.745 479.14 126.992 474.182 125.263C469.76 123.721 468.392 121.025 469.752 116.019C471.063 111.194 473.335 107.014 477.236 104.214C481.227 101.35 485.387 98.7618 489.275 95.736C495.039 91.2503 496.763 86.3433 495.243 79.9632C493.832 74.042 488.597 69.4063 482.398 68.7994C479.934 68.5582 477.419 68.3495 474.745 69.4378Z" fill="#2E4F7A"/>
<path d="M484.405 142.468C487.113 147.241 487.27 152.102 484.788 155.687C482.486 159.01 479.392 160.55 475.601 159.754C471.81 158.957 469.184 156.465 468.481 152.209C467.736 147.699 468.815 143.636 472.448 140.994C475.753 138.591 479.23 138.575 482.65 140.838C483.224 141.218 483.705 141.773 484.405 142.468Z" fill="#2E4F7A"/>
</g>
<path d="M17.5072 122.171V143.489M7.29492 132.83H27.7195" stroke="#B3B3B3" stroke-width="4" stroke-linecap="round" stroke-linejoin="round"/>
<path d="M432.565 441.175V462.493M422.353 451.834H442.777" stroke="#B3B3B3" stroke-width="4" stroke-linecap="round" stroke-linejoin="round"/>
<ellipse cx="532.864" cy="336.871" rx="4.74143" ry="4.56807" fill="#D9D9D9"/>
<ellipse cx="211.176" cy="109.99" rx="4.74143" ry="4.56807" fill="#D9D9D9"/>
<path d="M167.131 623.091V658H161.506L145.057 634.222H144.767V658H138.443V623.091H144.102L160.534 646.886H160.841V623.091H167.131ZM185.169 658.511C182.612 658.511 180.396 657.949 178.521 656.824C176.646 655.699 175.192 654.125 174.158 652.102C173.135 650.08 172.624 647.716 172.624 645.011C172.624 642.307 173.135 639.937 174.158 637.903C175.192 635.869 176.646 634.29 178.521 633.165C180.396 632.04 182.612 631.477 185.169 631.477C187.726 631.477 189.942 632.04 191.817 633.165C193.692 634.29 195.141 635.869 196.163 637.903C197.197 639.937 197.714 642.307 197.714 645.011C197.714 647.716 197.197 650.08 196.163 652.102C195.141 654.125 193.692 655.699 191.817 656.824C189.942 657.949 187.726 658.511 185.169 658.511ZM185.203 653.568C186.589 653.568 187.749 653.187 188.68 652.426C189.612 651.653 190.305 650.619 190.76 649.324C191.226 648.028 191.459 646.585 191.459 644.994C191.459 643.392 191.226 641.943 190.76 640.648C190.305 639.341 189.612 638.301 188.68 637.528C187.749 636.756 186.589 636.369 185.203 636.369C183.783 636.369 182.601 636.756 181.658 637.528C180.726 638.301 180.027 639.341 179.561 640.648C179.107 641.943 178.879 643.392 178.879 644.994C178.879 646.585 179.107 648.028 179.561 649.324C180.027 650.619 180.726 651.653 181.658 652.426C182.601 653.187 183.783 653.568 185.203 653.568ZM224.574 658.46C222.517 658.46 220.676 657.932 219.051 656.875C217.426 655.818 216.142 654.284 215.199 652.273C214.256 650.261 213.784 647.818 213.784 644.943C213.784 642.034 214.261 639.58 215.216 637.58C216.182 635.568 217.483 634.051 219.119 633.028C220.756 631.994 222.58 631.477 224.591 631.477C226.125 631.477 227.386 631.739 228.375 632.261C229.364 632.773 230.148 633.392 230.727 634.119C231.307 634.835 231.756 635.511 232.074 636.148H232.33V623.091H238.517V658H232.449V653.875H232.074C231.756 654.511 231.295 655.187 230.693 655.903C230.091 656.608 229.295 657.21 228.307 657.71C227.318 658.21 226.074 658.46 224.574 658.46ZM226.295 653.398C227.602 653.398 228.716 653.045 229.636 652.341C230.557 651.625 231.256 650.631 231.733 649.358C232.21 648.085 232.449 646.602 232.449 644.909C232.449 643.216 232.21 641.744 231.733 640.494C231.267 639.244 230.574 638.273 229.653 637.58C228.744 636.886 227.625 636.54 226.295 636.54C224.92 636.54 223.773 636.898 222.852 637.614C221.932 638.33 221.239 639.318 220.773 640.58C220.307 641.841 220.074 643.284 220.074 644.909C220.074 646.545 220.307 648.006 220.773 649.29C221.25 650.562 221.949 651.568 222.869 652.307C223.801 653.034 224.943 653.398 226.295 653.398ZM252.626 658.528C250.967 658.528 249.473 658.233 248.143 657.642C246.825 657.04 245.78 656.153 245.007 654.983C244.246 653.812 243.865 652.369 243.865 650.653C243.865 649.176 244.138 647.955 244.683 646.989C245.229 646.023 245.973 645.25 246.916 644.67C247.859 644.091 248.922 643.653 250.104 643.358C251.297 643.051 252.53 642.83 253.803 642.693C255.337 642.534 256.581 642.392 257.536 642.267C258.49 642.131 259.183 641.926 259.615 641.653C260.058 641.369 260.28 640.932 260.28 640.341V640.239C260.28 638.955 259.899 637.96 259.138 637.256C258.376 636.551 257.28 636.199 255.848 636.199C254.337 636.199 253.138 636.528 252.251 637.188C251.376 637.847 250.786 638.625 250.479 639.523L244.717 638.705C245.172 637.114 245.922 635.784 246.967 634.716C248.013 633.636 249.291 632.83 250.803 632.295C252.314 631.75 253.984 631.477 255.814 631.477C257.075 631.477 258.331 631.625 259.581 631.92C260.831 632.216 261.973 632.705 263.007 633.386C264.041 634.057 264.871 634.972 265.496 636.131C266.132 637.29 266.45 638.739 266.45 640.477V658H260.518V654.403H260.314C259.939 655.131 259.411 655.812 258.729 656.449C258.058 657.074 257.212 657.58 256.189 657.966C255.178 658.341 253.99 658.528 252.626 658.528ZM254.229 653.994C255.467 653.994 256.541 653.75 257.45 653.261C258.359 652.761 259.058 652.102 259.547 651.284C260.047 650.466 260.297 649.574 260.297 648.608V645.523C260.104 645.682 259.774 645.83 259.308 645.966C258.854 646.102 258.342 646.222 257.774 646.324C257.206 646.426 256.643 646.517 256.087 646.597C255.53 646.676 255.047 646.744 254.638 646.801C253.717 646.926 252.893 647.131 252.166 647.415C251.439 647.699 250.865 648.097 250.445 648.608C250.024 649.108 249.814 649.756 249.814 650.551C249.814 651.688 250.229 652.545 251.058 653.125C251.888 653.705 252.945 653.994 254.229 653.994ZM285.729 631.818V636.591H270.678V631.818H285.729ZM274.393 625.545H280.564V650.125C280.564 650.955 280.689 651.591 280.939 652.034C281.2 652.466 281.541 652.761 281.962 652.92C282.382 653.08 282.848 653.159 283.359 653.159C283.746 653.159 284.098 653.131 284.416 653.074C284.746 653.017 284.996 652.966 285.166 652.92L286.206 657.744C285.876 657.858 285.405 657.983 284.791 658.119C284.189 658.256 283.45 658.335 282.575 658.358C281.03 658.403 279.638 658.17 278.399 657.659C277.161 657.136 276.178 656.33 275.45 655.239C274.734 654.148 274.382 652.784 274.393 651.148V625.545ZM298.423 658.528C296.764 658.528 295.27 658.233 293.94 657.642C292.622 657.04 291.577 656.153 290.804 654.983C290.043 653.812 289.662 652.369 289.662 650.653C289.662 649.176 289.935 647.955 290.48 646.989C291.026 646.023 291.77 645.25 292.713 644.67C293.656 644.091 294.719 643.653 295.901 643.358C297.094 643.051 298.327 642.83 299.599 642.693C301.134 642.534 302.378 642.392 303.332 642.267C304.287 642.131 304.98 641.926 305.412 641.653C305.855 641.369 306.077 640.932 306.077 640.341V640.239C306.077 638.955 305.696 637.96 304.935 637.256C304.173 636.551 303.077 636.199 301.645 636.199C300.134 636.199 298.935 636.528 298.048 637.188C297.173 637.847 296.582 638.625 296.276 639.523L290.514 638.705C290.969 637.114 291.719 635.784 292.764 634.716C293.81 633.636 295.088 632.83 296.599 632.295C298.111 631.75 299.781 631.477 301.611 631.477C302.872 631.477 304.128 631.625 305.378 631.92C306.628 632.216 307.77 632.705 308.804 633.386C309.838 634.057 310.668 634.972 311.293 636.131C311.929 637.29 312.247 638.739 312.247 640.477V658H306.315V654.403H306.111C305.736 655.131 305.207 655.812 304.526 656.449C303.855 657.074 303.009 657.58 301.986 657.966C300.974 658.341 299.787 658.528 298.423 658.528ZM300.026 653.994C301.264 653.994 302.338 653.75 303.247 653.261C304.156 652.761 304.855 652.102 305.344 651.284C305.844 650.466 306.094 649.574 306.094 648.608V645.523C305.901 645.682 305.571 645.83 305.105 645.966C304.651 646.102 304.139 646.222 303.571 646.324C303.003 646.426 302.44 646.517 301.884 646.597C301.327 646.676 300.844 646.744 300.435 646.801C299.514 646.926 298.69 647.131 297.963 647.415C297.236 647.699 296.662 648.097 296.241 648.608C295.821 649.108 295.611 649.756 295.611 650.551C295.611 651.688 296.026 652.545 296.855 653.125C297.685 653.705 298.741 653.994 300.026 653.994ZM343.619 631.818V636.591H328.142V631.818H343.619ZM332.011 658V629.347C332.011 627.585 332.375 626.119 333.102 624.949C333.841 623.778 334.83 622.903 336.068 622.324C337.307 621.744 338.682 621.455 340.193 621.455C341.261 621.455 342.21 621.54 343.04 621.71C343.869 621.881 344.483 622.034 344.881 622.17L343.653 626.943C343.392 626.864 343.062 626.784 342.665 626.705C342.267 626.614 341.824 626.568 341.335 626.568C340.188 626.568 339.375 626.847 338.898 627.403C338.432 627.949 338.199 628.733 338.199 629.756V658H332.011ZM358.888 658.511C356.331 658.511 354.115 657.949 352.24 656.824C350.365 655.699 348.911 654.125 347.876 652.102C346.854 650.08 346.342 647.716 346.342 645.011C346.342 642.307 346.854 639.937 347.876 637.903C348.911 635.869 350.365 634.29 352.24 633.165C354.115 632.04 356.331 631.477 358.888 631.477C361.445 631.477 363.661 632.04 365.536 633.165C367.411 634.29 368.859 635.869 369.882 637.903C370.916 639.937 371.433 642.307 371.433 645.011C371.433 647.716 370.916 650.08 369.882 652.102C368.859 654.125 367.411 655.699 365.536 656.824C363.661 657.949 361.445 658.511 358.888 658.511ZM358.922 653.568C360.308 653.568 361.467 653.187 362.399 652.426C363.331 651.653 364.024 650.619 364.479 649.324C364.945 648.028 365.178 646.585 365.178 644.994C365.178 643.392 364.945 641.943 364.479 640.648C364.024 639.341 363.331 638.301 362.399 637.528C361.467 636.756 360.308 636.369 358.922 636.369C357.501 636.369 356.32 636.756 355.376 637.528C354.445 638.301 353.746 639.341 353.28 640.648C352.825 641.943 352.598 643.392 352.598 644.994C352.598 646.585 352.825 648.028 353.28 649.324C353.746 650.619 354.445 651.653 355.376 652.426C356.32 653.187 357.501 653.568 358.922 653.568ZM393.358 646.989V631.818H399.528V658H393.545V653.347H393.273C392.682 654.812 391.71 656.011 390.358 656.943C389.017 657.875 387.364 658.341 385.398 658.341C383.682 658.341 382.165 657.96 380.847 657.199C379.54 656.426 378.517 655.307 377.778 653.841C377.04 652.364 376.67 650.58 376.67 648.489V631.818H382.841V647.534C382.841 649.193 383.295 650.511 384.205 651.489C385.114 652.466 386.307 652.955 387.784 652.955C388.693 652.955 389.574 652.733 390.426 652.29C391.278 651.847 391.977 651.188 392.523 650.312C393.08 649.426 393.358 648.318 393.358 646.989ZM412.044 642.659V658H405.874V631.818H411.771V636.267H412.078C412.68 634.801 413.641 633.636 414.959 632.773C416.288 631.909 417.93 631.477 419.885 631.477C421.692 631.477 423.266 631.864 424.607 632.636C425.959 633.409 427.004 634.528 427.743 635.994C428.493 637.46 428.862 639.239 428.851 641.33V658H422.68V642.284C422.68 640.534 422.226 639.165 421.317 638.176C420.419 637.187 419.175 636.693 417.584 636.693C416.504 636.693 415.544 636.932 414.703 637.409C413.874 637.875 413.22 638.551 412.743 639.438C412.277 640.324 412.044 641.398 412.044 642.659ZM444.839 658.46C442.783 658.46 440.942 657.932 439.317 656.875C437.692 655.818 436.408 654.284 435.464 652.273C434.521 650.261 434.05 647.818 434.05 644.943C434.05 642.034 434.527 639.58 435.482 637.58C436.447 635.568 437.749 634.051 439.385 633.028C441.021 631.994 442.845 631.477 444.857 631.477C446.391 631.477 447.652 631.739 448.641 632.261C449.629 632.773 450.413 633.392 450.993 634.119C451.572 634.835 452.021 635.511 452.339 636.148H452.595V623.091H458.783V658H452.714V653.875H452.339C452.021 654.511 451.561 655.187 450.959 655.903C450.357 656.608 449.561 657.21 448.572 657.71C447.584 658.21 446.339 658.46 444.839 658.46ZM446.561 653.398C447.868 653.398 448.982 653.045 449.902 652.341C450.822 651.625 451.521 650.631 451.999 649.358C452.476 648.085 452.714 646.602 452.714 644.909C452.714 643.216 452.476 641.744 451.999 640.494C451.533 639.244 450.839 638.273 449.919 637.58C449.01 636.886 447.891 636.54 446.561 636.54C445.186 636.54 444.038 636.898 443.118 637.614C442.197 638.33 441.504 639.318 441.038 640.58C440.572 641.841 440.339 643.284 440.339 644.909C440.339 646.545 440.572 648.006 441.038 649.29C441.516 650.562 442.214 651.568 443.135 652.307C444.067 653.034 445.209 653.398 446.561 653.398Z" fill="#2E4F7A"/>
<path d="M407.05 272.37C404.053 276.9 400.356 277.189 396.545 273.244C390.114 266.588 383.679 259.932 377.436 253.094C375.336 250.793 374.021 250.92 371.981 253.094C365.864 259.615 359.562 265.955 353.344 272.379C349.715 276.128 346.956 276.643 344.182 274.041C341.472 271.499 341.436 267.144 344.557 263.804C350.52 257.427 356.722 251.283 362.785 245.003C366.26 241.404 366.236 241.359 362.824 237.764C356.812 231.431 350.786 225.113 344.768 218.787C343.681 217.644 342.466 216.543 342.174 214.895C341.678 212.083 342.155 209.535 344.757 207.944C347.326 206.375 349.822 206.816 351.913 208.862C355.143 212.023 358.247 215.317 361.393 218.566C365.125 222.42 368.904 226.227 372.541 230.172C374.192 231.962 375.366 232.025 377.1 230.201C383.404 223.567 389.855 217.079 396.235 210.52C399.997 206.653 403.242 206.025 405.969 208.689C409.014 211.663 408.624 215.368 404.875 219.208C398.559 225.682 392.302 232.219 385.904 238.608C383.852 240.659 383.642 242.048 385.855 244.264C392.317 250.734 398.499 257.495 404.866 264.064C407.122 266.39 408.078 268.948 407.05 272.37Z" fill="#2E4F7A"/>
<defs>
<filter id="filter0_d_37_274" x="31.2285" y="53.7378" width="549.321" height="486.328" filterUnits="userSpaceOnUse" color-interpolation-filters="sRGB">
<feFlood flood-opacity="0" result="BackgroundImageFix"/>
<feColorMatrix in="SourceAlpha" type="matrix" values="0 0 0 0 0 0 0 0 0 0 0 0 0 0 0 0 0 0 127 0" result="hardAlpha"/>
<feOffset dy="4"/>
<feGaussianBlur stdDeviation="2"/>
<feComposite in2="hardAlpha" operator="out"/>
<feColorMatrix type="matrix" values="0 0 0 0 0 0 0 0 0 0 0 0 0 0 0 0 0 0 0.25 0"/>
<feBlend mode="normal" in2="BackgroundImageFix" result="effect1_dropShadow_37_274"/>
<feBlend mode="normal" in="SourceGraphic" in2="effect1_dropShadow_37_274" result="shape"/>
</filter>
</defs>
</svg>
