<svg width="18" height="20" viewBox="0 0 18 20" fill="none" xmlns="http://www.w3.org/2000/svg">
<path d="M2.83594 13.6927L4.48586 9.06283M4.48586 9.06283H10.4238M4.48586 9.06283L7.01229 1.9698C7.04726 1.86122 7.10814 1.76803 7.18699 1.70236C7.26584 1.63668 7.35903 1.60156 7.45442 1.60156C7.54981 1.60156 7.643 1.63668 7.72185 1.70236C7.8007 1.76803 7.86158 1.86122 7.89655 1.9698L10.4238 9.06283M10.4238 9.06283L10.7134 9.87653" stroke="#637381" stroke-width="1.5" stroke-linecap="round" stroke-linejoin="round"/>
<path d="M11.3075 18.6199C11.7044 18.5102 12.0677 18.2648 12.3551 17.9124L17.0419 12.1828C17.2505 11.9384 17.4172 11.6454 17.5321 11.3211C17.647 10.9968 17.7079 10.6476 17.711 10.2942C17.7142 9.94075 17.6597 9.59008 17.5507 9.26274C17.4416 8.93541 17.2803 8.638 17.076 8.38796C16.8718 8.13791 16.6289 7.94026 16.3614 7.80659C16.0939 7.67291 15.8073 7.60591 15.5184 7.60951C15.2295 7.61311 14.9441 7.68724 14.6789 7.82755C14.4137 7.96785 14.174 8.17152 13.974 8.4266L9.28809 14.1582C9.00022 14.5114 8.79913 14.9572 8.7089 15.4429L8.2483 17.9176C8.21568 18.0923 8.21983 18.2742 8.26036 18.4464C8.30088 18.6185 8.37646 18.7753 8.48002 18.902C8.58357 19.0287 8.71171 19.1211 8.85244 19.1707C8.99317 19.2203 9.14189 19.2254 9.28466 19.1855L11.3075 18.6199Z" fill="#637381"/>
<path d="M1.14062 17.3051L1.62873 17.5511C2.17698 17.8276 2.80086 17.7351 3.30958 17.3619C3.90252 16.9298 4.72662 16.4 5.4433 16.2055C5.94429 16.0688 6.51145 16.4147 6.38083 17.0213C6.23475 17.6962 5.7879 18.4889 6.21584 18.8558C6.86034 19.4077 10.5391 17.9958 10.5391 17.9958" stroke="#637381" stroke-width="1.5" stroke-linecap="round" stroke-linejoin="round"/>
</svg>
