<svg width="24" height="25" viewBox="0 0 24 25" fill="none" xmlns="http://www.w3.org/2000/svg">
<path d="M12 2C7.395 2 2.5 3.227 2.5 5.5V19.5C2.5 21.773 7.395 23 12 23C16.605 23 21.5 21.773 21.5 19.5V5.5C21.5 3.227 16.605 2 12 2ZM12 18C6.733 18 3.5 16.544 3.5 15.5V14.133C5.166 15.354 8.66 16 12 16C15.34 16 18.834 15.354 20.5 14.133V15.5C20.5 16.544 17.267 18 12 18ZM12 14C6.733 14 3.5 12.544 3.5 11.5V10.132C5.166 11.354 8.66 12 12 12C15.34 12 18.834 11.354 20.5 10.132V11.5C20.5 12.544 17.267 14 12 14ZM20.5 19.5C20.5 20.544 17.267 22 12 22C6.733 22 3.5 20.544 3.5 19.5V18.133C5.166 19.354 8.66 20 12 20C15.34 20 18.834 19.354 20.5 18.133V19.5ZM12 10C6.733 10 3.5 8.544 3.5 7.5V5.5C3.5 4.456 6.733 3 12 3C17.267 3 20.5 4.456 20.5 5.5V7.5C20.5 8.544 17.267 10 12 10Z" fill="#878787"/>
</svg>
