<svg width="14" height="16" viewBox="0 0 14 16" fill="none" xmlns="http://www.w3.org/2000/svg">
<path d="M1 14.6116H4.692V9.53456C4.692 9.3059 4.76967 9.11423 4.925 8.95956C5.07967 8.80423 5.27133 8.72656 5.5 8.72656H8.5C8.72867 8.72656 8.92067 8.80423 9.076 8.95956C9.23067 9.11423 9.308 9.3059 9.308 9.53456V14.6116H13V5.91956C13 5.8169 12.9777 5.72356 12.933 5.63956C12.8883 5.55556 12.8273 5.48223 12.75 5.41956L7.366 1.36156C7.26333 1.27223 7.14133 1.22756 7 1.22756C6.85867 1.22756 6.737 1.27223 6.635 1.36156L1.25 5.41956C1.17333 5.48356 1.11233 5.5569 1.067 5.63956C1.02167 5.72223 0.999333 5.81556 1 5.91956V14.6116ZM0 14.6116V5.91956C0 5.66356 0.0573333 5.42123 0.172 5.19256C0.286667 4.9639 0.444667 4.77556 0.646 4.62756L6.031 0.549563C6.313 0.33423 6.635 0.226562 6.997 0.226562C7.359 0.226562 7.683 0.33423 7.969 0.549563L13.354 4.62656C13.556 4.77456 13.714 4.96323 13.828 5.19256C13.9427 5.42123 14 5.66356 14 5.91956V14.6116C14 14.8796 13.9003 15.1132 13.701 15.3126C13.5017 15.5119 13.268 15.6116 13 15.6116H9.116C8.88667 15.6116 8.69467 15.5342 8.54 15.3796C8.38533 15.2242 8.308 15.0322 8.308 14.8036V9.72756H5.692V14.8036C5.692 15.0329 5.61467 15.2249 5.46 15.3796C5.30533 15.5342 5.11367 15.6116 4.885 15.6116H1C0.732 15.6116 0.498333 15.5119 0.299 15.3126C0.0996664 15.1132 0 14.8796 0 14.6116Z" fill="#878787"/>
</svg>
