<svg width="46" height="57" viewBox="0 0 46 57" fill="none" xmlns="http://www.w3.org/2000/svg">
<path d="M44.5563 56.0146H6.93231C6.66501 56.0146 6.40865 55.9129 6.21964 55.7318C6.03063 55.5507 5.92444 55.305 5.92444 55.0489V8.69191C5.92444 8.43577 6.03063 8.19012 6.21964 8.009C6.40865 7.82789 6.66501 7.72614 6.93231 7.72614H44.5563C44.8236 7.72614 45.0799 7.82789 45.2689 8.009C45.4579 8.19012 45.5641 8.43577 45.5641 8.69191V55.0489C45.5641 55.305 45.4579 55.5507 45.2689 55.7318C45.0799 55.9129 44.8236 56.0146 44.5563 56.0146ZM7.94019 54.0831H43.5484V9.65768H7.94019V54.0831Z" fill="black"/>
<path d="M43.8205 9.6577H5.59186C4.25534 9.6577 2.97355 9.14895 2.02849 8.24336C1.08342 7.33778 0.55249 6.10954 0.55249 4.82885C0.55249 3.54816 1.08342 2.31992 2.02849 1.41434C2.97355 0.508752 4.25534 0 5.59186 0H43.8205C44.283 0 44.7265 0.176028 45.0535 0.489361C45.3804 0.802693 45.5641 1.22766 45.5641 1.67078C45.5649 1.80019 45.5386 1.92842 45.4866 2.04787C45.4347 2.16732 45.3582 2.27555 45.2618 2.36614C44.4834 2.98134 43.9906 3.86669 43.8911 4.82885C43.9829 5.78663 44.4644 6.67131 45.2315 7.29156C45.328 7.38215 45.4045 7.49038 45.4564 7.60983C45.5083 7.72928 45.5347 7.85752 45.5339 7.98692C45.534 8.42506 45.3544 8.8457 45.034 9.15821C44.7135 9.47073 44.2777 9.6501 43.8205 9.6577ZM5.59186 1.93154C4.78995 1.93154 4.02088 2.23679 3.45384 2.78014C2.8868 3.32349 2.56824 4.06044 2.56824 4.82885C2.56824 5.59727 2.8868 6.33421 3.45384 6.87756C4.02088 7.42091 4.78995 7.72616 5.59186 7.72616H42.984C42.2937 6.90258 41.9042 5.88482 41.8753 4.82885C41.9042 3.77288 42.2937 2.75512 42.984 1.93154H5.59186Z" fill="black"/>
<path d="M43.8205 56.0147H5.59186C4.25534 56.0147 2.97355 55.5059 2.02849 54.6004C1.08342 53.6948 0.55249 52.4665 0.55249 51.1858V4.82887C0.55249 4.57273 0.658677 4.32708 0.84769 4.14597C1.0367 3.96485 1.29306 3.8631 1.56036 3.8631C1.82767 3.8631 2.08403 3.96485 2.27304 4.14597C2.46205 4.32708 2.56824 4.57273 2.56824 4.82887V51.1858C2.56824 51.9543 2.8868 52.6912 3.45384 53.2345C4.02088 53.7779 4.78995 54.0831 5.59186 54.0831H43.5887C43.6248 53.827 43.7656 53.5951 43.9801 53.4384C44.1947 53.2818 44.4653 53.2132 44.7326 53.2478C45 53.2823 45.242 53.4172 45.4055 53.6228C45.569 53.8284 45.6405 54.0878 45.6045 54.3439C45.6045 54.5666 45.5581 54.7871 45.468 54.9923C45.3778 55.1976 45.2458 55.3835 45.0796 55.5392C44.9134 55.6949 44.7164 55.8171 44.5002 55.8988C44.2839 55.9804 44.0529 56.0198 43.8205 56.0147Z" fill="black"/>
<path d="M36.4933 30.2576H14.9953C14.728 30.2576 14.4716 30.1558 14.2826 29.9747C14.0936 29.7936 13.9874 29.548 13.9874 29.2918V18.9967C13.9874 18.7406 14.0936 18.4949 14.2826 18.3138C14.4716 18.1327 14.728 18.0309 14.9953 18.0309H36.4933C36.7606 18.0309 37.0169 18.1327 37.2059 18.3138C37.3949 18.4949 37.5011 18.7406 37.5011 18.9967V29.2918C37.5011 29.548 37.3949 29.7936 37.2059 29.9747C37.0169 30.1558 36.7606 30.2576 36.4933 30.2576ZM16.0032 28.3261H35.4854V19.9625H16.0032V28.3261Z" fill="black"/>
</svg>
