<svg width="18" height="20" viewBox="0 0 18 20" fill="none" xmlns="http://www.w3.org/2000/svg">
<path d="M0.385252 11.504C0.271252 11.4306 0.202918 11.329 0.180252 11.199C0.157585 11.069 0.180918 10.945 0.250252 10.827L3.08925 6.27298C3.37859 5.80498 3.79359 5.55332 4.33425 5.51798C4.87425 5.48265 5.32259 5.67198 5.67925 6.08598L6.57725 7.12598C6.71858 7.29265 6.89492 7.36665 7.10625 7.34798C7.31758 7.32865 7.47458 7.22932 7.57725 7.04998L9.62525 3.71898C9.93192 3.21365 10.3803 2.95365 10.9703 2.93898C11.5609 2.92432 12.0176 3.16765 12.3403 3.66898L13.2893 5.12698C13.4173 5.30632 13.5933 5.39598 13.8173 5.39598C14.0413 5.39598 14.2113 5.29998 14.3273 5.10798L16.8973 1.00398C16.9699 0.881982 17.0783 0.807982 17.2223 0.781982C17.3663 0.755982 17.4976 0.789316 17.6163 0.881982C17.7169 0.955316 17.7786 1.05065 17.8013 1.16798C17.8239 1.28532 17.8006 1.40298 17.7313 1.52098L15.1613 5.62498C14.8553 6.12632 14.4069 6.37698 13.8163 6.37698C13.2256 6.37698 12.7689 6.13465 12.4463 5.64998L11.5173 4.22998C11.3893 4.03798 11.2129 3.94532 10.9883 3.95198C10.7643 3.95865 10.5943 4.05798 10.4783 4.24998L8.43125 7.56098C8.14525 8.02898 7.72858 8.28498 7.18125 8.32898C6.63458 8.37232 6.18325 8.18698 5.82725 7.77298L4.92325 6.70798C4.78192 6.54132 4.60858 6.46732 4.40325 6.48598C4.19859 6.50598 4.04525 6.60532 3.94325 6.78398L1.10325 11.364C1.03059 11.4853 0.922252 11.5623 0.778252 11.595C0.634252 11.6276 0.503252 11.5973 0.385252 11.504ZM12.1153 16.546C12.9179 16.546 13.5963 16.2693 14.1503 15.716C14.7043 15.1626 14.9809 14.484 14.9803 13.68C14.9803 12.878 14.7036 12.2 14.1503 11.646C13.5969 11.092 12.9189 10.8153 12.1163 10.816C11.3136 10.8166 10.6353 11.0933 10.0813 11.646C9.52725 12.1986 9.25025 12.877 9.25025 13.681C9.25025 14.485 9.52692 15.163 10.0803 15.715C10.6336 16.267 11.3123 16.544 12.1163 16.546M12.1163 17.546C11.0456 17.546 10.1336 17.1693 9.38025 16.416C8.62692 15.6627 8.25025 14.751 8.25025 13.681C8.25025 12.611 8.62692 11.699 9.38025 10.945C10.1336 10.191 11.0453 9.81432 12.1153 9.81498C13.1853 9.81565 14.0973 10.1923 14.8513 10.945C15.6053 11.6976 15.9819 12.6096 15.9813 13.681C15.9813 14.127 15.9099 14.551 15.7673 14.953C15.6253 15.355 15.4249 15.7183 15.1663 16.043L17.6273 18.523C17.7206 18.6163 17.7673 18.728 17.7673 18.858C17.7673 18.988 17.7206 19.0993 17.6273 19.192C17.5339 19.2846 17.4193 19.3313 17.2833 19.332C17.1473 19.3326 17.0326 19.286 16.9393 19.192L14.4583 16.731C14.1336 16.9896 13.7736 17.1903 13.3783 17.333C12.9829 17.4756 12.5623 17.5466 12.1163 17.546Z" fill="#878787"/>
</svg>
