<svg width="22" height="22" viewBox="0 0 22 22" fill="none" xmlns="http://www.w3.org/2000/svg">
<path d="M19.638 13.3264L19.588 12.8294L19.573 12.8304L19.556 12.8334L19.638 13.3264ZM19.638 13.3264L19.688 13.8244L19.705 13.8224L19.721 13.8194L19.638 13.3264ZM15.598 18.8084L15.915 18.4214L15.91 18.4184L15.598 18.8084ZM15.598 18.8084L15.281 19.1954L15.286 19.1994L15.598 18.8084ZM6.402 18.8084L6.085 18.4224L6.078 18.4284L6.07 18.4354L6.402 18.8084ZM6.402 18.8084L6.719 19.1964L6.727 19.1894L6.734 19.1834L6.402 18.8084ZM2.361 9.05441V8.55441H2.337L2.312 8.55641L2.361 9.05441ZM2.361 9.05441V9.55441H2.386L2.411 9.55141L2.361 9.05441ZM13.632 2.50141C13.6172 2.32008 13.5962 2.1393 13.569 1.95941C13.5465 1.80011 13.4986 1.64547 13.427 1.50141L12.538 1.96041C12.548 1.98041 12.565 2.02041 12.582 2.12441C12.601 2.23441 12.615 2.37741 12.638 2.60041L13.632 2.50141ZM13.828 3.70441C13.816 3.68941 13.78 3.62841 13.741 3.41441C13.6942 3.11144 13.6592 2.80692 13.634 2.50141L12.638 2.60041C12.678 3.00141 12.711 3.33341 12.757 3.59141C12.802 3.84341 12.872 4.10041 13.033 4.31141L13.828 3.70441ZM14.292 3.89641C14.2046 3.90817 14.1156 3.8966 14.0341 3.86288C13.9527 3.82916 13.8815 3.77449 13.828 3.70441L13.032 4.31041C13.1926 4.52099 13.4061 4.68531 13.6507 4.78665C13.8954 4.888 14.1625 4.92276 14.425 4.88741L14.292 3.89641ZM15.28 3.18341C14.955 3.45041 14.733 3.63141 14.558 3.75241C14.379 3.87641 14.31 3.89341 14.292 3.89641L14.425 4.88741C14.687 4.85241 14.918 4.72041 15.129 4.57341C15.344 4.42341 15.601 4.21341 15.914 3.95741L15.28 3.18341ZM16.132 2.62241C15.972 2.67341 15.837 2.75441 15.709 2.84541C15.585 2.93341 15.444 3.04941 15.28 3.18341L15.914 3.95741C16.087 3.81541 16.199 3.72441 16.289 3.66041C16.334 3.62481 16.3838 3.59585 16.437 3.57441L16.132 2.62241ZM17.185 2.67441C16.8519 2.53023 16.4777 2.51175 16.132 2.62241L16.437 3.57441C16.552 3.53798 16.6763 3.54438 16.787 3.59241L17.185 2.67441ZM17.977 3.31841C17.827 3.16841 17.698 3.03841 17.584 2.93841C17.466 2.82963 17.3313 2.74049 17.185 2.67441L16.787 3.59241C16.808 3.60141 16.846 3.62241 16.926 3.69241C17.009 3.76441 17.111 3.86641 17.27 4.02541L17.977 3.31841ZM18.87 4.21141L17.977 3.31841L17.27 4.02541L18.163 4.91841L18.87 4.21141ZM19.514 5.00341C19.4476 4.85707 19.3581 4.72235 19.249 4.60441C19.149 4.49041 19.019 4.36141 18.87 4.21141L18.163 4.91841C18.322 5.07741 18.423 5.17941 18.497 5.26241C18.567 5.34241 18.587 5.38041 18.596 5.40141L19.514 5.00341ZM19.566 6.05641C19.6767 5.71068 19.6582 5.33655 19.514 5.00341L18.596 5.40141C18.6437 5.5122 18.6497 5.63651 18.613 5.75141L19.566 6.05641ZM19.005 6.90841C19.139 6.74441 19.255 6.60341 19.343 6.47941C19.433 6.35141 19.515 6.21641 19.566 6.05641L18.613 5.75141C18.5919 5.80454 18.5632 5.85438 18.528 5.89941C18.4328 6.02734 18.3337 6.15239 18.231 6.27441L19.005 6.90841ZM18.292 7.89641C18.295 7.87841 18.312 7.80941 18.436 7.63041C18.557 7.45541 18.738 7.23341 19.005 6.90841L18.231 6.27441C17.975 6.58741 17.764 6.84441 17.615 7.05941C17.468 7.26941 17.336 7.50141 17.301 7.76341L18.292 7.89641ZM18.484 8.36041C18.4139 8.30687 18.3592 8.23575 18.3255 8.15426C18.2918 8.07277 18.2802 7.98381 18.292 7.89641L17.301 7.76341C17.2658 8.02571 17.3007 8.29264 17.402 8.53712C17.5034 8.78159 17.6676 8.99491 17.878 9.15541L18.484 8.36041ZM19.687 8.55541C19.268 8.51341 18.984 8.48541 18.774 8.44741C18.56 8.40841 18.499 8.37241 18.484 8.36041L17.878 9.15541C18.088 9.31541 18.345 9.38541 18.598 9.43141C18.855 9.47741 19.186 9.51141 19.588 9.55141L19.687 8.55541ZM20.687 8.76141C20.5429 8.68982 20.3883 8.64187 20.229 8.61941C20.079 8.59441 19.897 8.57641 19.687 8.55541L19.587 9.55041C19.811 9.57341 19.954 9.58741 20.064 9.60641C20.1205 9.61322 20.1757 9.62804 20.228 9.65041L20.687 8.76141ZM21.394 9.54241C21.2605 9.20516 21.0093 8.9277 20.687 8.76141L20.228 9.65041C20.3355 9.70569 20.4194 9.79806 20.464 9.91041L21.394 9.54241ZM21.499 10.5574C21.499 10.3464 21.499 10.1634 21.489 10.0114C21.4826 9.851 21.4506 9.69265 21.394 9.54241L20.464 9.91041C20.472 9.93141 20.484 9.97341 20.491 10.0784C20.4985 10.2383 20.5011 10.3984 20.499 10.5584L21.499 10.5574ZM21.499 11.8214V10.5574H20.499V11.8214H21.499ZM21.394 12.8354C21.456 12.6794 21.479 12.5234 21.489 12.3664C21.499 12.2154 21.499 12.0324 21.499 11.8214H20.499C20.499 12.0454 20.499 12.1894 20.491 12.3004C20.49 12.3574 20.4809 12.414 20.464 12.4684L21.394 12.8354ZM20.687 13.6174C21.0095 13.4509 21.2607 13.173 21.394 12.8354L20.464 12.4684C20.4194 12.5808 20.3355 12.6731 20.228 12.7284L20.687 13.6174ZM19.687 13.8234C19.897 13.8024 20.08 13.7834 20.229 13.7584C20.384 13.7334 20.537 13.6944 20.686 13.6184L20.228 12.7284C20.1757 12.7508 20.1205 12.7656 20.064 12.7724C19.954 12.7914 19.811 12.8054 19.588 12.8284L19.687 13.8234ZM18.485 14.0184C18.5 14.0064 18.561 13.9694 18.775 13.9314C18.985 13.8934 19.269 13.8644 19.687 13.8234L19.588 12.8284C19.187 12.8684 18.855 12.9004 18.597 12.9474C18.345 12.9924 18.089 13.0624 17.878 13.2224L18.485 14.0184ZM18.292 14.4824C18.2804 14.3949 18.2921 14.3059 18.326 14.2244C18.3599 14.1429 18.4147 14.0718 18.485 14.0184L17.878 13.2224C17.6674 13.383 17.5031 13.5965 17.4018 13.8411C17.3004 14.0858 17.2656 14.3529 17.301 14.6154L18.292 14.4824ZM19.005 15.4704C18.8069 15.2365 18.6171 14.9957 18.436 14.7484C18.312 14.5704 18.295 14.5004 18.292 14.4824L17.302 14.6164C17.337 14.8784 17.469 15.1084 17.615 15.3194C17.765 15.5334 17.975 15.7914 18.231 16.1034L19.005 15.4704ZM19.566 16.3224C19.5149 16.17 19.4396 16.0269 19.343 15.8984C19.2347 15.7524 19.122 15.6096 19.005 15.4704L18.231 16.1034C18.373 16.2774 18.464 16.3884 18.528 16.4794C18.5632 16.5241 18.5918 16.5736 18.613 16.6264L19.566 16.3224ZM19.514 17.3754C19.6582 17.0423 19.6767 16.6681 19.566 16.3224L18.613 16.6264C18.65 16.7416 18.6439 16.8663 18.596 16.9774L19.514 17.3754ZM18.871 18.1664C19.02 18.0174 19.149 17.8884 19.249 17.7744C19.353 17.6554 19.447 17.5304 19.514 17.3754L18.596 16.9774C18.5694 17.0279 18.5357 17.0744 18.496 17.1154C18.3885 17.2334 18.2774 17.3481 18.163 17.4594L18.871 18.1664ZM17.977 19.0604L18.871 18.1664L18.163 17.4594L17.27 18.3534L17.977 19.0604ZM17.185 19.7034C17.339 19.6364 17.465 19.5434 17.584 19.4394C17.698 19.3394 17.827 19.2094 17.977 19.0594L17.27 18.3534C17.111 18.5124 17.009 18.6134 16.926 18.6864C16.8847 18.7262 16.8379 18.7599 16.787 18.7864L17.185 19.7034ZM16.132 19.7564C16.4778 19.8667 16.852 19.8479 17.185 19.7034L16.787 18.7864C16.6762 18.8341 16.5519 18.8401 16.437 18.8034L16.132 19.7564ZM15.28 19.1944C15.444 19.3284 15.585 19.4444 15.709 19.5324C15.837 19.6234 15.972 19.7054 16.132 19.7564L16.437 18.8034C16.3839 18.7823 16.334 18.7536 16.289 18.7184C16.1611 18.6228 16.036 18.5235 15.914 18.4204L15.28 19.1944ZM14.292 18.4824C14.31 18.4844 14.38 18.5024 14.558 18.6264C14.733 18.7474 14.955 18.9284 15.28 19.1944L15.914 18.4204C15.601 18.1654 15.344 17.9544 15.129 17.8044C14.919 17.6584 14.687 17.5264 14.425 17.4914L14.292 18.4824ZM13.828 18.6744C13.8815 18.6043 13.9527 18.5497 14.0341 18.5159C14.1156 18.4822 14.2046 18.4706 14.292 18.4824L14.425 17.4914C14.1628 17.4561 13.8959 17.4908 13.6514 17.592C13.407 17.6931 13.1936 17.8572 13.033 18.0674L13.828 18.6744ZM13.633 19.8774C13.675 19.4584 13.703 19.1744 13.741 18.9644C13.78 18.7504 13.816 18.6894 13.828 18.6744L13.033 18.0674C12.873 18.2774 12.803 18.5354 12.757 18.7874C12.711 19.0444 12.677 19.3754 12.637 19.7774L13.633 19.8774ZM13.427 20.8774C13.504 20.7274 13.542 20.5744 13.568 20.4194C13.594 20.2694 13.612 20.0874 13.633 19.8774L12.637 19.7774C12.6231 19.9369 12.6054 20.096 12.582 20.2544C12.5752 20.3109 12.5604 20.3661 12.538 20.4184L13.427 20.8774ZM12.646 21.5844C12.9832 21.4509 13.2607 21.1997 13.427 20.8774L12.538 20.4184C12.4827 20.5259 12.3903 20.6098 12.278 20.6544L12.646 21.5844ZM11.631 21.6894C11.842 21.6894 12.025 21.6894 12.177 21.6794C12.333 21.6694 12.49 21.6464 12.646 21.5844L12.278 20.6544C12.2236 20.6713 12.167 20.6804 12.11 20.6814C12 20.6894 11.855 20.6894 11.63 20.6894L11.631 21.6894ZM10.367 21.6894H11.631L11.63 20.6894H10.367V21.6894ZM9.352 21.5844C9.509 21.6464 9.665 21.6694 9.822 21.6794C9.973 21.6894 10.156 21.6894 10.367 21.6894V20.6894C10.143 20.6894 9.999 20.6894 9.888 20.6814C9.831 20.6804 9.77443 20.6713 9.72 20.6544L9.352 21.5844ZM8.571 20.8774C8.73729 21.1997 9.01475 21.4509 9.352 21.5844L9.72 20.6544C9.60765 20.6098 9.51529 20.5259 9.46 20.4184L8.571 20.8774ZM8.365 19.8774C8.385 20.0887 8.40633 20.2694 8.429 20.4194C8.455 20.5744 8.494 20.7274 8.571 20.8774L9.46 20.4184C9.43763 20.3661 9.42282 20.3109 9.416 20.2544C9.39258 20.0963 9.37391 19.9376 9.36 19.7784L8.365 19.8774ZM8.17 18.6744C8.182 18.6894 8.218 18.7504 8.257 18.9644C8.295 19.1744 8.323 19.4594 8.365 19.8774L9.36 19.7784C9.32 19.3774 9.287 19.0454 9.241 18.7874C9.196 18.5354 9.126 18.2784 8.965 18.0674L8.17 18.6744ZM7.706 18.4824C7.7934 18.4706 7.88236 18.4822 7.96385 18.5159C8.04534 18.5497 8.11646 18.6043 8.17 18.6744L8.965 18.0674C8.8045 17.857 8.59119 17.6938 8.34671 17.5924C8.10223 17.4911 7.8353 17.4562 7.573 17.4914L7.706 18.4824ZM6.718 19.1954C7.043 18.9284 7.265 18.7474 7.44 18.6264C7.619 18.5024 7.688 18.4844 7.706 18.4824L7.573 17.4914C7.311 17.5264 7.08 17.6584 6.869 17.8054C6.654 17.9544 6.397 18.1654 6.084 18.4214L6.718 19.1954ZM5.866 19.7564C6.026 19.7054 6.161 19.6244 6.289 19.5334C6.413 19.4454 6.554 19.3294 6.718 19.1954L6.084 18.4214C5.96199 18.5241 5.83693 18.6232 5.709 18.7184C5.66397 18.7536 5.61413 18.7823 5.561 18.8034L5.866 19.7564ZM4.813 19.7054C5.14614 19.8496 5.52027 19.8671 5.866 19.7564L5.561 18.8034C5.4461 18.8401 5.3218 18.8341 5.211 18.7864L4.813 19.7054ZM4.021 19.0604C4.171 19.2104 4.3 19.3404 4.414 19.4404C4.532 19.5434 4.659 19.6384 4.813 19.7054L5.211 18.7864C5.16012 18.7599 5.11331 18.7262 5.072 18.6864C4.95404 18.5789 4.83932 18.4678 4.728 18.3534L4.021 19.0604ZM3.128 18.1674L4.021 19.0604L4.728 18.3534L3.835 17.4604L3.128 18.1674ZM2.484 17.3754C2.551 17.5294 2.645 17.6554 2.749 17.7744C2.849 17.8884 2.979 18.0174 3.128 18.1674L3.835 17.4604C3.72025 17.3491 3.60887 17.2344 3.501 17.1164C3.46119 17.0751 3.42752 17.0283 3.401 16.9774L2.484 17.3754ZM2.432 16.3224C2.32135 16.6681 2.33982 17.0423 2.484 17.3754L3.401 16.9774C3.35297 16.8667 3.34758 16.7424 3.384 16.6274L2.432 16.3224ZM2.993 15.4704C2.859 15.6344 2.743 15.7754 2.655 15.8994C2.55853 16.0276 2.48324 16.1704 2.432 16.3224L3.384 16.6274C3.40545 16.5742 3.43441 16.5244 3.47 16.4794C3.534 16.3894 3.625 16.2774 3.767 16.1044L2.993 15.4704ZM3.706 14.4824C3.703 14.5004 3.686 14.5694 3.562 14.7484C3.44 14.9234 3.26 15.1454 2.993 15.4704L3.767 16.1044C4.023 15.7914 4.234 15.5344 4.383 15.3194C4.53 15.1094 4.662 14.8774 4.697 14.6154L3.706 14.4824ZM3.514 14.0184C3.58408 14.0719 3.63875 14.1431 3.67247 14.2246C3.70619 14.306 3.71776 14.395 3.706 14.4824L4.697 14.6154C4.73217 14.3531 4.69732 14.0862 4.59598 13.8417C4.49464 13.5972 4.33042 13.3839 4.12 13.2234L3.514 14.0184ZM2.311 13.8244C2.73 13.8654 3.014 13.8934 3.224 13.9314C3.438 13.9704 3.499 14.0064 3.514 14.0184L4.12 13.2224C3.91 13.0624 3.653 12.9924 3.4 12.9474C3.143 12.9014 2.812 12.8674 2.41 12.8274L2.311 13.8244ZM1.311 13.6174C1.461 13.6944 1.614 13.7324 1.769 13.7584C1.919 13.7844 2.1 13.8034 2.311 13.8244L2.411 12.8284C2.25148 12.8145 2.0924 12.7958 1.934 12.7724C1.87752 12.7656 1.8223 12.7508 1.77 12.7284L1.311 13.6174ZM0.604 12.8354C0.737287 13.173 0.988479 13.4509 1.311 13.6174L1.77 12.7284C1.66249 12.6731 1.57865 12.5808 1.534 12.4684L0.604 12.8354ZM0.5 11.8234C0.5 12.0344 0.5 12.2174 0.51 12.3694C0.516472 12.5295 0.548545 12.6875 0.605 12.8374L1.535 12.4704C1.51806 12.416 1.50897 12.3594 1.508 12.3024C1.50053 12.1425 1.49786 11.9824 1.5 11.8224L0.5 11.8234ZM0.5 10.5594V11.8234H1.5V10.5594H0.5ZM0.605 9.54441C0.548335 9.69496 0.516259 9.85366 0.51 10.0144C0.5 10.1654 0.5 10.3484 0.5 10.5594H1.5C1.5 10.3354 1.5 10.1914 1.508 10.0804C1.50897 10.0234 1.51806 9.96684 1.535 9.91241L0.605 9.54441ZM1.312 8.76341C0.989659 8.9297 0.738491 9.20716 0.605 9.54441L1.535 9.91241C1.57965 9.80006 1.66349 9.70769 1.771 9.65241L1.312 8.76341ZM2.312 8.55641C2.10067 8.57641 1.92 8.59874 1.77 8.62141C1.61071 8.64387 1.45606 8.69182 1.312 8.76341L1.771 9.65241C1.791 9.64241 1.831 9.62541 1.935 9.60841C2.045 9.58941 2.188 9.57541 2.411 9.55241L2.312 8.55641ZM3.515 8.36241C3.5 8.37441 3.439 8.41041 3.225 8.44941C3.015 8.48741 2.731 8.51441 2.312 8.55641L2.411 9.55241C2.812 9.51241 3.145 9.47941 3.402 9.43341C3.655 9.38841 3.912 9.31841 4.122 9.15741L3.515 8.36241ZM3.707 7.89841C3.71876 7.98581 3.70719 8.07477 3.67347 8.15626C3.63975 8.23775 3.58508 8.30887 3.515 8.36241L4.122 9.15741C4.33224 8.99679 4.49626 8.78343 4.59742 8.53896C4.69858 8.29449 4.73328 8.02662 4.698 7.76441L3.707 7.89841ZM2.994 6.90941C3.261 7.23541 3.442 7.45741 3.564 7.63241C3.688 7.81141 3.704 7.88041 3.707 7.89841L4.698 7.76441C4.663 7.50241 4.531 7.27241 4.384 7.06141C4.235 6.84641 4.024 6.58941 3.768 6.27641L2.994 6.90941ZM2.433 6.05741C2.483 6.21741 2.565 6.35341 2.656 6.48141C2.744 6.60441 2.86 6.74641 2.994 6.90941L3.768 6.27641C3.66527 6.15407 3.56622 6.02868 3.471 5.90041C3.43549 5.85574 3.40653 5.80625 3.385 5.75341L2.433 6.05741ZM2.485 5.00541C2.34107 5.33826 2.3226 5.71198 2.433 6.05741L3.385 5.75341C3.34858 5.63839 3.35497 5.51408 3.403 5.40341L2.485 5.00541ZM3.129 4.21341C2.979 4.36241 2.849 4.49141 2.749 4.60641C2.64022 4.72443 2.55109 4.85914 2.485 5.00541L3.403 5.40341C3.4296 5.35288 3.46327 5.30541 3.503 5.26441C3.61004 5.14598 3.72111 5.03124 3.836 4.92041L3.129 4.21341ZM4.022 3.31941L3.129 4.21341L3.836 4.92041L4.729 4.02641L4.022 3.31941ZM4.814 2.67641C4.66773 2.74249 4.53302 2.83163 4.415 2.94041C4.301 3.04041 4.171 3.16941 4.022 3.31941L4.729 4.02641C4.888 3.86841 4.99 3.76641 5.073 3.69341C5.153 3.62341 5.191 3.60341 5.212 3.59341L4.814 2.67641ZM5.867 2.62341C5.52115 2.51307 5.14702 2.5319 4.814 2.67641L5.212 3.59341C5.32267 3.54538 5.44698 3.53998 5.562 3.57641L5.867 2.62341ZM6.719 3.18541C6.555 3.05141 6.414 2.93541 6.29 2.84741C6.1619 2.75058 6.01908 2.67495 5.867 2.62341L5.562 3.57641C5.61513 3.59754 5.66497 3.62617 5.71 3.66141C5.8 3.72641 5.912 3.81741 6.086 3.95941L6.719 3.18541ZM7.707 3.89841C7.689 3.89541 7.62 3.87841 7.441 3.75441C7.19368 3.57298 6.95287 3.38386 6.719 3.18541L6.086 3.95941C6.398 4.21541 6.656 4.42641 6.87 4.57541C7.08 4.72141 7.312 4.85341 7.574 4.88941L7.707 3.89841ZM8.171 3.70541C8.11758 3.77567 8.04651 3.83054 7.96501 3.86444C7.88351 3.89833 7.79449 3.91005 7.707 3.89841L7.574 4.88941C7.83637 4.92487 8.10345 4.88926 8.34811 4.7881C8.59277 4.68693 8.8063 4.52281 8.967 4.31241L8.171 3.70541ZM8.366 2.50341C8.324 2.92141 8.296 3.20641 8.258 3.41541C8.219 3.62941 8.183 3.69041 8.171 3.70541L8.967 4.31241C9.127 4.10241 9.197 3.84541 9.242 3.59241C9.288 3.33541 9.322 3.00441 9.362 2.60241L8.366 2.50341ZM8.572 1.50341C8.495 1.65341 8.456 1.80641 8.43 1.96141C8.405 2.11141 8.387 2.29241 8.366 2.50341L9.361 2.60341C9.37489 2.44388 9.39356 2.28481 9.417 2.12641C9.42382 2.06993 9.43863 2.01471 9.461 1.96241L8.572 1.50341ZM9.354 0.796406C9.01621 0.929941 8.73835 1.18051 8.572 1.50341L9.461 1.96241C9.51629 1.85489 9.60865 1.77105 9.721 1.72641L9.354 0.796406ZM10.368 0.691406C10.157 0.691406 9.974 0.691406 9.822 0.701406C9.66193 0.707878 9.50393 0.739951 9.354 0.796406L9.721 1.72641C9.77543 1.70947 9.832 1.70038 9.889 1.69941C9.999 1.69141 10.144 1.69141 10.369 1.69141L10.368 0.691406ZM11.632 0.691406H10.368V1.69141H11.632V0.691406ZM12.647 0.796406C12.4964 0.739742 12.3377 0.707665 12.177 0.701406C12.026 0.691406 11.843 0.691406 11.632 0.691406V1.69141C11.856 1.69141 12 1.69141 12.111 1.69941C12.168 1.70038 12.2246 1.70947 12.279 1.72641L12.647 0.796406ZM13.428 1.50341C13.2615 1.18089 12.9836 0.929693 12.646 0.796406L12.279 1.72641C12.3913 1.77105 12.4837 1.85489 12.539 1.96241L13.428 1.50341ZM14.5 11.1904C14.5 12.1187 14.1313 13.0089 13.4749 13.6653C12.8185 14.3217 11.9283 14.6904 11 14.6904V15.6904C12.1935 15.6904 13.3381 15.2163 14.182 14.3724C15.0259 13.5285 15.5 12.3839 15.5 11.1904H14.5ZM11 7.69041C11.9283 7.69041 12.8185 8.05915 13.4749 8.71553C14.1313 9.37191 14.5 10.2621 14.5 11.1904H15.5C15.5 9.99693 15.0259 8.85234 14.182 8.00843C13.3381 7.16451 12.1935 6.69041 11 6.69041V7.69041ZM7.5 11.1904C7.5 10.2621 7.86875 9.37191 8.52513 8.71553C9.1815 8.05915 10.0717 7.69041 11 7.69041V6.69041C9.80653 6.69041 8.66193 7.16451 7.81802 8.00843C6.97411 8.85234 6.5 9.99693 6.5 11.1904H7.5ZM11 14.6904C10.0717 14.6904 9.1815 14.3217 8.52513 13.6653C7.86875 13.0089 7.5 12.1187 7.5 11.1904H6.5C6.5 12.3839 6.97411 13.5285 7.81802 14.3724C8.66193 15.2163 9.80653 15.6904 11 15.6904V14.6904Z" fill="#878787"/>
</svg>
