<svg width="16" height="17" viewBox="0 0 16 17" fill="none" xmlns="http://www.w3.org/2000/svg">
<path d="M9.5 5.08534V1.71934C9.5 1.48134 9.578 1.28568 9.734 1.13234C9.89 0.97901 10.0833 0.902344 10.314 0.902344H15.194C15.4253 0.902344 15.6173 0.97901 15.77 1.13234C15.9227 1.28568 15.9993 1.48134 16 1.71934V5.08534C16 5.32401 15.922 5.51968 15.766 5.67234C15.61 5.82568 15.4167 5.90234 15.186 5.90234H10.306C10.0753 5.90234 9.88333 5.82568 9.73 5.67234C9.57667 5.51901 9.5 5.32334 9.5 5.08534ZM0 8.10234V1.70234C0 1.47568 0.0780002 1.28568 0.234 1.13234C0.39 0.97901 0.583333 0.902344 0.814 0.902344H5.694C5.92533 0.902344 6.11733 0.97901 6.27 1.13234C6.42267 1.28568 6.49933 1.47568 6.5 1.70234V8.10234C6.5 8.32901 6.422 8.51901 6.266 8.67234C6.11 8.82568 5.91667 8.90234 5.686 8.90234H0.806C0.575334 8.90234 0.383333 8.82568 0.23 8.67234C0.0766667 8.51901 0 8.32901 0 8.10234ZM9.5 16.1023V9.70234C9.5 9.47568 9.578 9.28568 9.734 9.13234C9.89 8.97901 10.0833 8.90234 10.314 8.90234H15.194C15.4253 8.90234 15.6173 8.97901 15.77 9.13234C15.9227 9.28568 15.9993 9.47568 16 9.70234V16.1023C16 16.329 15.922 16.519 15.766 16.6723C15.61 16.8257 15.4167 16.9023 15.186 16.9023H10.306C10.0753 16.9023 9.88333 16.8257 9.73 16.6723C9.57667 16.519 9.5 16.329 9.5 16.1023ZM0 16.0853V12.7193C0 12.4813 0.0780002 12.2857 0.234 12.1323C0.39 11.979 0.583333 11.9023 0.814 11.9023H5.694C5.92533 11.9023 6.11733 11.979 6.27 12.1323C6.42267 12.2857 6.49933 12.4813 6.5 12.7193V16.0853C6.5 16.324 6.422 16.5197 6.266 16.6723C6.11 16.8257 5.91667 16.9023 5.686 16.9023H0.806C0.575334 16.9023 0.383333 16.8257 0.23 16.6723C0.0766667 16.519 0 16.3233 0 16.0853ZM1 7.90234H5.5V1.90234H1V7.90234ZM10.5 15.9023H15V9.90234H10.5V15.9023ZM10.5 4.90234H15V1.90234H10.5V4.90234ZM1 15.9023H5.5V12.9023H1V15.9023Z" fill="#878787"/>
</svg>
