<svg width="44" height="43" viewBox="0 0 44 43" fill="none" xmlns="http://www.w3.org/2000/svg">
<rect x="0.734375" width="42.528" height="42.528" rx="6" fill="#1D9499" fill-opacity="0.24"/>
<path d="M10 12.2324C10 10.5741 11.4227 9.34227 13.0893 8.57157C15.2006 7.6843 17.4702 7.24867 19.7556 7.29201C22.0411 7.24867 24.3107 7.6843 26.422 8.57157C28.0886 9.34227 29.5113 10.5741 29.5113 12.2324V18.8196H27.8853V15.032C27.429 15.3723 26.9412 15.6605 26.422 15.8965C24.3105 16.7827 22.0409 17.2172 19.7556 17.1728C17.4702 17.2161 15.2006 16.7805 13.0893 15.8932C12.5732 15.6585 12.0828 15.3698 11.6259 15.032V28.7004C11.6259 29.3163 12.2048 30.1413 13.7689 30.8626C15.6668 31.6515 17.7046 32.0366 19.7556 31.994C20.5664 32.0104 21.3718 31.961 22.1718 31.8458C22.4319 31.9424 22.7116 31.9918 23.0108 31.994H23.7733L23.453 33.29C22.2401 33.5469 21.0011 33.6655 19.7556 33.6408C17.4702 33.6841 15.2006 33.2485 13.0893 32.3612C11.4227 31.5905 10 30.3587 10 28.7004V12.2324ZM11.6259 12.2324C11.6259 12.8483 12.2048 13.6733 13.7689 14.3946C15.6668 15.1836 17.7046 15.5687 19.7556 15.526C21.8067 15.5687 23.8445 15.1836 25.7424 14.3946C27.3065 13.6733 27.8853 12.8467 27.8853 12.2324C27.8853 11.6165 27.3065 10.7915 25.7424 10.0702C23.8445 9.28124 21.8067 8.89614 19.7556 8.9388C17.7046 8.89614 15.6668 9.28124 13.7689 10.0702C12.2048 10.7915 11.6259 11.6165 11.6259 12.2324ZM24.8156 30.3472C24.9391 30.3472 25.0609 30.3757 25.1719 30.4306C25.2829 30.4854 25.3801 30.5652 25.4561 30.6638C25.5321 30.7623 25.5849 30.8771 25.6106 30.9995C25.6362 31.1218 25.634 31.2485 25.6042 31.3698L24.8985 34.232C24.7018 35.0274 25.6497 35.5939 26.2415 35.034L34.1631 27.5443C34.3418 27.3752 34.4662 27.1556 34.52 26.914C34.5739 26.6724 34.5548 26.4199 34.4652 26.1894C34.3756 25.959 34.2197 25.7611 34.0177 25.6215C33.8156 25.4819 33.5768 25.4071 33.3322 25.4068H32.6754C32.5466 25.4067 32.4197 25.3756 32.3052 25.3161C32.1906 25.2567 32.0916 25.1705 32.0163 25.0647C31.9411 24.9589 31.8917 24.8365 31.8723 24.7076C31.8529 24.5786 31.864 24.4469 31.9047 24.3232L32.8168 21.55C32.8575 21.4264 32.8686 21.2948 32.8492 21.166C32.8299 21.0372 32.7807 20.9149 32.7056 20.8092C32.6306 20.7034 32.5318 20.6172 32.4174 20.5576C32.3031 20.498 32.1764 20.4667 32.0478 20.4664H26.4009C26.2402 20.4663 26.0831 20.5144 25.9494 20.6047C25.8157 20.695 25.7114 20.8233 25.6497 20.9736L22.2628 29.2076C22.2115 29.3326 22.1914 29.4686 22.2043 29.6033C22.2172 29.7381 22.2628 29.8676 22.3369 29.9803C22.411 30.093 22.5115 30.1854 22.6293 30.2494C22.7471 30.3134 22.8787 30.347 23.0124 30.3472H24.8156Z" fill="#548587"/>
</svg>
