<svg width="800" height="800" viewBox="0 0 800 800" fill="none" xmlns="http://www.w3.org/2000/svg">
<g clip-path="url(#clip0_43_175)">
<path d="M63.363 761.625H736.933C784.031 761.625 814.355 711.946 793.064 670.009L456.279 73.2154C433.046 26.7687 366.599 26.7687 343.372 73.2154L6.58694 670.009C-14.0589 711.946 16.2647 761.625 63.363 761.625ZM453.059 622.911C453.059 653.879 430.478 677.751 398.219 677.751C365.96 677.751 343.378 653.879 343.378 622.911V621.62C343.378 590.651 365.96 566.78 398.219 566.78C430.478 566.78 453.059 590.651 453.059 621.62V622.911ZM368.534 219.672H431.768C449.182 219.672 459.511 234.511 457.576 253.221L429.826 495.81C427.891 513.23 416.278 524.198 400.148 524.198C384.018 524.198 372.405 513.23 370.47 495.81L342.72 253.221C340.791 234.511 351.121 219.672 368.534 219.672Z" fill="#2E4F7A"/>
</g>
<defs>
<clipPath id="clip0_43_175">
<rect width="800" height="800" fill="white"/>
</clipPath>
</defs>
</svg>
