<svg width="44" height="44" viewBox="0 0 44 44" fill="none" xmlns="http://www.w3.org/2000/svg">
<rect x="0.734375" y="0.710938" width="42.528" height="42.528" rx="6" fill="#FFB800" fill-opacity="0.24"/>
<path d="M21.9992 21.9729V29.0609M21.9992 29.0609C21.0593 29.0609 20.1578 29.4343 19.4932 30.0989C18.8286 30.7635 18.4552 31.665 18.4552 32.6049C18.4552 33.5448 18.8286 34.4462 19.4932 35.1109C20.1578 35.7755 21.0593 36.1489 21.9992 36.1489C22.9391 36.1489 23.8405 35.7755 24.5052 35.1109C25.1698 34.4462 25.5432 33.5448 25.5432 32.6049C25.5432 31.665 25.1698 30.7635 24.5052 30.0989C23.8405 29.4343 22.9391 29.0609 21.9992 29.0609ZM14.9112 14.8849C15.8511 14.8849 16.7525 14.5115 17.4172 13.8469C18.0818 13.1822 18.4552 12.2808 18.4552 11.3409C18.4552 10.4009 18.0818 9.49952 17.4172 8.83489C16.7525 8.17026 15.8511 7.79688 14.9112 7.79688C13.9713 7.79688 13.0698 8.17026 12.4052 8.83489C11.7406 9.49952 11.3672 10.4009 11.3672 11.3409C11.3672 12.2808 11.7406 13.1822 12.4052 13.8469C13.0698 14.5115 13.9713 14.8849 14.9112 14.8849ZM14.9112 14.8849V18.4289C14.9112 19.3688 15.2846 20.2702 15.9492 20.9349C16.6138 21.5995 17.5153 21.9729 18.4552 21.9729H25.5432C26.4831 21.9729 27.3845 21.5995 28.0492 20.9349C28.7138 20.2702 29.0872 19.3688 29.0872 18.4289V14.8849M29.0872 14.8849C30.0271 14.8849 30.9285 14.5115 31.5932 13.8469C32.2578 13.1822 32.6312 12.2808 32.6312 11.3409C32.6312 10.4009 32.2578 9.49952 31.5932 8.83489C30.9285 8.17026 30.0271 7.79688 29.0872 7.79688C28.1473 7.79688 27.2458 8.17026 26.5812 8.83489C25.9166 9.49952 25.5432 10.4009 25.5432 11.3409C25.5432 12.2808 25.9166 13.1822 26.5812 13.8469C27.2458 14.5115 28.1473 14.8849 29.0872 14.8849Z" stroke="#F2C85C" stroke-width="2" stroke-linecap="round" stroke-linejoin="round"/>
</svg>
