<svg width="23" height="24" viewBox="0 0 23 24" fill="none" xmlns="http://www.w3.org/2000/svg">
<path d="M19.3307 1V6.33333M21.9974 3.66667H16.6641M14.6641 11.6667L5.33073 6.33333M11.3201 4.42267L17.9867 8.232C18.3951 8.46525 18.7345 8.80234 18.9705 9.20907C19.2065 9.61581 19.3308 10.0777 19.3307 10.548V16.7853C19.3308 17.2556 19.2065 17.7175 18.9705 18.1243C18.7345 18.531 18.3951 18.8681 17.9867 19.1013L11.3201 22.9107C10.9172 23.1408 10.4613 23.2618 9.9974 23.2618C9.53347 23.2618 9.07757 23.1408 8.67473 22.9107L2.00806 19.1013C1.59972 18.8681 1.26032 18.531 1.02429 18.1243C0.788256 17.7175 0.663979 17.2556 0.664063 16.7853V10.548C0.663979 10.0777 0.788256 9.61581 1.02429 9.20907C1.26032 8.80234 1.59972 8.46525 2.00806 8.232L8.67473 4.42267C9.07757 4.19256 9.53347 4.07153 9.9974 4.07153C10.4613 4.07153 10.9172 4.19256 11.3201 4.42267Z" stroke="#1C252E" stroke-linecap="round" stroke-linejoin="round"/>
<path d="M1.32812 9.66797L8.73079 13.6546C9.11928 13.8638 9.55359 13.9732 9.99479 13.9732C10.436 13.9732 10.8703 13.8638 11.2588 13.6546L18.6615 9.66797M9.99479 14.3346V23.0013" stroke="#1C252E" stroke-linecap="round" stroke-linejoin="round"/>
</svg>
