<svg width="17" height="16" viewBox="0 0 17 16" fill="none" xmlns="http://www.w3.org/2000/svg">
<path fill-rule="evenodd" clip-rule="evenodd" d="M5.87802 15.3232H16.0778C16.4263 15.3232 16.7153 15.0414 16.7153 14.7016C16.7153 14.3618 16.4263 14.0801 16.0778 14.0801H5.87717C3.65021 14.0801 2.53758 14.0801 1.97659 13.5331C1.4156 12.9861 1.4156 11.9005 1.4156 9.72922V1.44186C1.4156 1.10208 1.12661 0.820312 0.778114 0.820312C0.42962 0.820312 0.140625 1.10208 0.140625 1.44186V9.72922C0.140625 12.2403 0.140625 13.5 1.07561 14.4116C2.01059 15.3232 3.30257 15.3232 5.87717 15.3232H5.87802ZM2.87758 10.1684C3.00507 10.2928 3.16657 10.3508 3.32807 10.3508C3.48957 10.3508 3.65106 10.2928 3.77856 10.1684L6.54101 7.47506C6.94901 7.07727 7.2465 6.78721 7.408 6.74577C7.5185 6.71262 7.62899 6.71262 7.75649 6.74577C7.90949 6.78721 8.20698 7.07727 8.61498 7.47506C9.22697 8.07175 9.55846 8.39495 10.026 8.51927C10.3744 8.61871 10.7399 8.61871 11.0714 8.51927C11.5474 8.39495 11.8789 8.07175 12.4909 7.47506L15.6784 4.3673C15.9248 4.12697 15.9248 3.72917 15.6784 3.48884C15.5584 3.37325 15.3965 3.30842 15.2279 3.30842C15.0592 3.30842 14.8973 3.37325 14.7774 3.48884L11.5899 6.5966L11.5882 6.59743C11.1802 6.99522 10.8836 7.28528 10.7221 7.32671C10.6116 7.35986 10.5011 7.35986 10.3736 7.32671C10.2206 7.28528 9.92395 6.99522 9.51681 6.59743H9.51511C8.90312 6.00074 8.57163 5.67753 8.10414 5.55322C7.75564 5.45377 7.39015 5.45377 7.05865 5.55322C6.58266 5.67753 6.25117 6.00074 5.63918 6.59743L2.87673 9.29082C2.63023 9.53115 2.63023 9.92894 2.87673 10.1693" fill="#637381"/>
</svg>
