<svg width="20" height="20" viewBox="0 0 20 20" fill="none" xmlns="http://www.w3.org/2000/svg">
<path d="M7.32061 1.40953V18.1226M18.6265 7.30827H1.91344M1.42188 7.20996C1.42188 5.00776 1.42188 3.90666 1.85052 3.06511C2.22753 2.3252 2.8291 1.72363 3.56902 1.34661C4.41057 0.917969 5.51167 0.917969 7.71386 0.917969H12.8261C15.0283 0.917969 16.1294 0.917969 16.971 1.34661C17.7109 1.72363 18.3124 2.3252 18.6894 3.06511C19.1181 3.90666 19.1181 5.00776 19.1181 7.20996V12.3222C19.1181 14.5244 19.1181 15.6255 18.6894 16.467C18.3124 17.207 17.7109 17.8085 16.971 18.1855C16.1294 18.6142 15.0283 18.6142 12.8261 18.6142H7.71386C5.51167 18.6142 4.41057 18.6142 3.56902 18.1855C2.8291 17.8085 2.22753 17.207 1.85052 16.467C1.42188 15.6255 1.42188 14.5244 1.42188 12.3222V7.20996Z" stroke="#193E6D" stroke-width="1.5" stroke-linecap="round" stroke-linejoin="round"/>
</svg>
