<svg width="44" height="44" viewBox="0 0 44 44" fill="none" xmlns="http://www.w3.org/2000/svg">
<rect x="0.734375" y="0.710938" width="42.528" height="42.528" rx="6" fill="#00BFFF" fill-opacity="0.24"/>
<path d="M9.73438 12.5138C9.73438 10.9026 11.1344 9.7058 12.7744 8.957C14.852 8.09495 17.0854 7.67169 19.3344 7.7138C21.5834 7.67169 23.8167 8.09495 25.8944 8.957C27.5344 9.7058 28.9344 10.9026 28.9344 12.5138V20.6882C28.3812 20.7323 27.8398 20.8719 27.3344 21.101V15.2338C26.8853 15.5645 26.4053 15.8445 25.8944 16.0738C23.8165 16.9348 21.5831 17.3569 19.3344 17.3138C17.0854 17.3559 14.852 16.9326 12.7744 16.0706C12.2666 15.8425 11.784 15.5621 11.3344 15.2338V28.5138C11.3344 29.1122 11.904 29.9138 13.4432 30.6146C15.3108 31.3811 17.316 31.7552 19.3344 31.7138H19.368C19.3872 31.8002 19.408 31.8861 19.4304 31.9714L18.2144 33.1938C18.1824 33.2258 18.1514 33.2583 18.1216 33.2914C16.2831 33.189 14.4751 32.7763 12.7744 32.0706C11.1344 31.3218 9.73438 30.125 9.73438 28.5138V12.5138ZM11.3344 12.5138C11.3344 13.1122 11.904 13.9138 13.4432 14.6146C15.3108 15.3811 17.316 15.7552 19.3344 15.7138C21.3527 15.7552 23.358 15.3811 25.2256 14.6146C26.7648 13.9138 27.3344 13.1106 27.3344 12.5138C27.3344 11.9154 26.7648 11.1138 25.2256 10.413C23.358 9.6465 21.3527 9.27235 19.3344 9.3138C17.316 9.27235 15.3108 9.6465 13.4432 10.413C11.904 11.1138 11.3344 11.9154 11.3344 12.5138ZM34.0512 21.8802C34.1256 21.8059 34.1846 21.7177 34.2249 21.6206C34.2652 21.5235 34.2859 21.4195 34.286 21.3144C34.2861 21.2092 34.2655 21.1051 34.2253 21.008C34.1851 20.9109 34.1263 20.8226 34.052 20.7482C33.9777 20.6738 33.8895 20.6148 33.7924 20.5745C33.6953 20.5342 33.5913 20.5134 33.4861 20.5134C33.381 20.5133 33.2769 20.5339 33.1798 20.5741C33.0826 20.6142 32.9944 20.6731 32.92 20.7474L31.0224 22.645L30.9664 22.7298C30.3557 22.3654 29.6411 22.2147 28.9353 22.3016C28.2295 22.3885 27.5728 22.7081 27.0688 23.2098L26.1088 24.1698C25.9632 24.3154 25.8476 24.4883 25.7688 24.6785C25.69 24.8688 25.6495 25.0727 25.6495 25.2786C25.6495 25.4845 25.69 25.6884 25.7688 25.8787C25.8476 26.0689 25.9632 26.2418 26.1088 26.3874L28.416 28.6898C28.5616 28.8357 28.7346 28.9514 28.925 29.0303C29.1154 29.1093 29.3195 29.1499 29.5256 29.1499C29.7317 29.1499 29.9358 29.1093 30.1262 29.0303C30.3166 28.9514 30.4895 28.8357 30.6352 28.6898L31.5952 27.7298C32.0973 27.2257 32.417 26.5687 32.504 25.8625C32.5909 25.1564 32.44 24.4414 32.0752 23.8306C32.1049 23.8142 32.1332 23.7955 32.16 23.7746L34.0512 21.8802ZM24.9776 27.5138C24.832 27.3682 24.6591 27.2527 24.4689 27.1739C24.2786 27.095 24.0747 27.0545 23.8688 27.0545C23.6628 27.0545 23.4589 27.095 23.2687 27.1739C23.0784 27.2527 22.9056 27.3682 22.76 27.5138L21.8 28.4738C21.2979 28.9779 20.9781 29.6349 20.8912 30.3411C20.8043 31.0472 20.9551 31.7622 21.32 32.373C21.2903 32.3894 21.2619 32.4081 21.2352 32.429L19.344 34.325C19.1982 34.4759 19.1176 34.678 19.1194 34.8877C19.1213 35.0975 19.2054 35.2981 19.3537 35.4464C19.502 35.5948 19.7027 35.6789 19.9125 35.6807C20.1222 35.6826 20.3243 35.6019 20.4752 35.4562L22.3712 33.5586L22.4288 33.4738C23.0394 33.8382 23.7541 33.9889 24.4599 33.902C25.1657 33.8151 25.8224 33.4955 26.3264 32.9938L27.2864 32.0338C27.4322 31.8882 27.5479 31.7152 27.6269 31.5248C27.7059 31.3344 27.7465 31.1303 27.7465 30.9242C27.7465 30.7181 27.7059 30.514 27.6269 30.3236C27.5479 30.1332 27.4322 29.9602 27.2864 29.8146L24.9776 27.5138Z" fill="#193E6D"/>
</svg>
