<svg width="44" height="44" viewBox="0 0 44 44" fill="none" xmlns="http://www.w3.org/2000/svg">
<rect x="0.734375" y="0.710938" width="42.528" height="42.528" rx="6" fill="#D6001E" fill-opacity="0.24"/>
<path d="M11.2937 25.2164V27.0804H15.568L9.42969 33.2188L10.7476 34.5366L16.8859 28.3983V32.6726H18.7499V25.2164H11.2937ZM29.9343 26.1484H31.7983V30.8085H29.9343V26.1484ZM26.2062 21.4883H28.0702V30.8085H26.2062V21.4883ZM22.4781 23.3523H24.3421V30.8085H22.4781V23.3523Z" fill="#EB6477"/>
<path d="M33.6624 8.44141H11.2937C10.7994 8.44141 10.3252 8.6378 9.97566 8.98737C9.62608 9.33695 9.42969 9.81108 9.42969 10.3055V21.4898H11.2937V18.6937H33.6633L33.6642 32.6741H22.4781V34.5381H33.6624C34.1565 34.5374 34.6302 34.3408 34.9796 33.9914C35.3291 33.6419 35.5257 33.1682 35.5264 32.6741V10.3055C35.5264 9.81108 35.33 9.33695 34.9804 8.98737C34.6309 8.6378 34.1567 8.44141 33.6624 8.44141ZM18.7499 16.8296H11.2937V10.3055H18.7499V16.8296ZM20.614 16.8296V10.3055H33.6624V16.8296H20.614Z" fill="#EB6477"/>
</svg>
